{"glyphs":{":":{"x_min":0,"x_max":253,"ha":253,"o":"m 154 412 q 137 403 118 403 q 77 403 58 435 q 50 448 50 467 q 50 503 82 520 q 100 529 118 529 q 158 529 179 497 q 187 484 187 466 q 187 429 154 412 z m 154 0 q 137 -9 118 -9 q 77 -9 58 23 q 50 36 50 55 q 50 91 82 108 q 100 117 118 117 q 158 117 179 85 q 187 72 187 54 q 187 17 154 0 z"},"$":{"x_min":0,"x_max":514,"ha":514,"o":"m 302 -1 l 292 -3 l 285 -4 l 285 -96 l 242 -96 l 242 -6 q 232 -6 223 -6 q 211 -3 205 -2 q 169 5 139 22 q 109 38 88 64 q 60 96 48 129 l 46 136 l 43 146 l 76 155 l 79 147 l 81 141 l 88 127 q 116 77 152 52 q 189 26 229 26 q 237 27 241 27 l 241 331 q 171 347 116 399 q 92 423 76 449 q 49 493 49 545 q 49 599 80 644 q 110 688 162 706 q 168 708 179 711 q 190 714 205 717 l 241 721 l 241 791 l 284 790 l 284 721 q 306 721 329 714 q 352 706 379 688 q 406 671 430 634 l 438 619 l 397 604 q 375 662 307 685 l 284 691 l 285 435 q 347 418 396 371 q 410 357 420 346 q 429 334 438 318 q 455 290 463 260 q 471 230 471 201 q 471 127 424 70 q 378 13 302 -1 z m 241 690 q 196 684 167 650 q 134 611 134 569 q 134 506 204 466 q 210 463 220 458 q 231 454 241 452 z m 332 277 q 311 299 285 313 l 285 33 q 326 43 352 79 q 378 115 378 162 q 378 185 374 202 q 369 220 357 242 q 345 263 344 264 q 335 273 332 277 z"},"?":{"x_min":0,"x_max":421,"ha":421,"o":"m 278 397 q 263 388 245 379 q 227 370 208 363 l 207 353 l 206 349 l 204 334 l 192 259 l 189 241 l 185 216 l 183 198 l 181 177 l 166 177 l 159 224 l 157 232 l 148 263 l 146 275 q 137 325 137 352 q 137 387 151 406 q 165 425 205 448 l 220 458 q 265 487 282 510 q 300 533 300 565 q 300 573 296 597 q 287 645 258 672 q 230 699 189 699 q 171 699 151 693 q 115 683 92 656 q 69 629 65 592 l 29 592 l 30 598 l 32 606 q 46 662 90 695 q 135 728 201 728 q 208 728 216 728 q 228 726 233 726 q 300 719 340 682 q 380 646 390 584 q 392 576 392 570 q 392 562 392 555 q 392 510 364 471 q 337 432 278 397 z m 209 0 q 191 -9 173 -9 q 131 -9 112 23 q 104 39 104 54 q 104 90 136 108 q 154 117 173 117 q 214 117 233 85 q 242 70 242 54 q 242 17 209 0 z"},"a":{"x_min":0,"x_max":420,"ha":420,"o":"m 337 0 l 297 122 l 70 122 l 30 0 l -7 0 l 151 486 q 157 502 161 510 q 165 517 172 525 q 188 539 206 539 q 238 539 252 512 l 263 486 l 427 0 z m 207 400 l 184 433 l 160 399 l 80 154 l 283 154 z"},"L":{"x_min":0,"x_max":430,"ha":430,"o":"m 72 0 l 72 720 l 173 720 l 173 32 l 437 32 l 437 0 z"},"3":{"x_min":0,"x_max":606,"ha":606,"o":"m 270 465 l 373 465 q 383 465 391 464 q 396 463 414 460 q 447 453 466 428 q 486 404 486 372 q 486 335 459 296 l 249 0 l 142 0 l 368 313 q 383 334 390 356 q 392 362 393 369 q 394 376 394 382 q 394 409 374 424 q 355 440 319 440 l 142 440 l 356 691 l 101 691 l 101 720 l 484 720 z"},";":{"x_min":0,"x_max":232,"ha":232,"o":"m 156 412 q 139 403 121 403 q 79 403 60 435 q 52 451 52 466 q 52 502 84 520 q 102 529 120 529 q 162 529 181 497 q 190 482 190 466 q 190 430 156 412 z m 135 -27 l 65 -122 l 56 -134 l 33 -163 l 14 -186 l 21 -159 l 31 -124 l 46 -72 q 79 42 96 80 q 114 118 136 118 q 143 118 156 113 q 186 101 186 76 q 186 43 135 -27 z"},"J":{"x_min":0,"x_max":331,"ha":331,"o":"m 114 2 l 84 0 l -7 0 l -7 32 l 82 32 q 122 32 140 62 q 159 93 159 170 l 159 720 l 259 720 l 259 170 q 259 87 225 48 q 191 10 114 2 z"},"V":{"x_min":0,"x_max":435,"ha":435,"o":"m 217 -12 l -14 720 l 89 720 l 253 202 l 416 720 l 449 720 z"},"7":{"x_min":0,"x_max":605,"ha":605,"o":"m 206 0 l 104 0 l 434 689 l 45 689 l 45 720 l 551 720 z"},"S":{"x_min":0,"x_max":506,"ha":506,"o":"m 247 -6 q 155 -6 98 45 l 79 65 q 53 98 41 129 l 39 136 l 36 146 l 69 155 l 72 147 l 74 141 l 81 127 q 137 25 228 25 q 291 25 330 62 q 370 100 370 160 q 370 177 365 200 q 355 245 329 273 q 303 301 247 325 q 139 371 100 406 q 61 441 46 502 q 43 516 42 523 q 41 530 41 545 q 41 620 99 672 q 157 724 247 724 q 308 724 352 702 q 395 679 423 634 l 431 619 l 393 604 q 378 636 348 660 q 304 693 255 693 q 216 693 183 672 q 156 654 140 626 q 125 597 125 568 q 125 519 159 491 q 174 478 194 468 q 213 457 247 446 q 343 414 393 368 q 439 325 457 257 q 464 229 464 200 q 464 113 402 54 q 341 -6 247 -6 z"},"Z":{"x_min":0,"x_max":594,"ha":594,"o":"m 22 0 l 438 688 l 47 688 l 47 720 l 565 720 l 158 32 l 565 32 l 565 0 z"},"x":{"x_min":0,"x_max":452,"ha":452,"o":"m 350 0 l 208 210 l 44 0 l 8 0 l 189 233 l 0 518 l 95 518 l 246 300 l 415 518 l 451 518 l 261 273 l 452 0 z"},")":{"x_min":0,"x_max":271,"ha":271,"o":"m 112 -116 l 93 -147 l 7 -147 l 33 -103 q 78 -19 102 65 q 127 149 127 249 l 127 362 q 127 463 102 551 q 81 626 33 714 l 7 758 l 93 758 l 112 726 q 175 618 202 491 q 225 382 225 237 q 225 151 196 64 q 166 -24 112 -116 z"},"&":{"x_min":0,"x_max":643,"ha":643,"o":"m 525 0 l 462 81 l 450 73 l 433 60 l 418 50 l 394 36 q 384 30 368 23 q 353 16 338 10 q 282 -9 232 -9 q 183 -9 144 10 q 106 29 78 65 q 59 90 50 119 q 41 148 41 176 q 41 256 124 333 q 138 345 148 353 q 163 365 187 382 l 215 401 l 221 405 l 213 419 l 206 432 l 188 458 l 178 474 q 138 539 138 584 q 138 625 174 669 q 218 724 291 724 q 305 724 312 723 q 371 716 405 680 q 439 644 439 589 q 439 565 434 544 q 429 524 415 499 q 409 488 402 478 q 396 469 386 458 q 377 447 368 437 q 352 420 340 410 l 335 406 l 328 401 l 503 164 l 510 169 q 541 194 552 221 q 564 248 564 295 l 563 358 l 593 358 l 596 293 q 596 249 584 216 q 571 183 540 151 l 531 143 l 523 136 l 627 0 z m 351 674 q 331 695 305 695 q 272 695 246 662 q 226 636 226 600 q 226 558 254 511 l 293 447 l 304 456 q 321 469 335 486 q 359 514 370 544 q 381 575 381 603 q 377 645 351 674 z m 264 351 l 250 341 l 212 310 q 151 249 151 196 q 151 159 178 117 q 225 45 298 45 q 341 45 386 68 q 394 72 407 80 q 420 89 430 97 l 443 108 z"},"_":{"x_min":0,"x_max":576,"ha":576,"o":"m 0 0 l 0 36 l 576 36 l 576 0 z"},"v":{"x_min":0,"x_max":447,"ha":447,"o":"m 264 33 q 260 21 259 20 q 256 13 252 8 q 244 -4 232 -4 q 220 -4 209 8 l 198 33 l -14 518 l 92 518 l 243 158 l 262 133 l 279 159 l 424 518 l 461 518 z"},"O":{"x_min":0,"x_max":853,"ha":853,"o":"m 543 6 q 471 -17 400 -17 q 275 -17 183 54 q 91 125 58 247 q 51 273 48 298 q 44 323 44 354 q 44 520 147 626 q 250 732 405 732 q 472 732 541 710 q 648 676 715 580 q 782 484 782 358 q 782 231 716 136 q 650 41 543 6 z m 408 699 q 299 699 228 611 q 151 516 151 353 q 151 332 154 307 q 157 282 162 259 q 188 143 254 82 q 319 21 408 21 q 515 21 587 108 q 665 202 665 360 q 665 518 587 612 q 515 699 408 699 z"},"(":{"x_min":0,"x_max":271,"ha":271,"o":"m 178 -147 l 159 -116 q 96 -8 69 119 q 46 228 46 373 q 46 459 77 551 q 105 634 159 726 l 178 758 l 264 758 l 238 714 q 193 631 170 551 q 144 460 144 362 l 144 249 q 144 148 169 60 q 191 -16 238 -103 l 264 -147 z"},"C":{"x_min":0,"x_max":724,"ha":724,"o":"m 393 -8 q 242 -8 143 94 q 44 196 44 359 q 44 536 152 632 q 261 727 450 727 q 475 727 500 722 q 524 717 571 696 q 627 670 673 627 l 653 602 l 632 617 q 578 654 532 668 q 475 686 423 686 q 305 686 233 600 q 161 515 161 362 q 161 206 233 120 q 305 34 427 34 q 453 34 482 38 q 510 42 539 51 q 587 65 633 99 l 650 113 l 675 90 q 631 46 558 19 q 486 -8 393 -8 z"},"W":{"x_min":0,"x_max":749,"ha":749,"o":"m 516 -12 l 375 427 l 228 -12 l -14 720 l 89 720 l 269 196 l 360 473 l 284 720 l 387 720 l 552 186 l 730 720 l 763 720 z"},"A":{"x_min":0,"x_max":625,"ha":625,"o":"m 544 0 l 447 214 l 108 214 l 13 0 l -22 0 l 312 751 l 647 0 z m 277 593 l 122 245 l 430 245 z"},"f":{"x_min":0,"x_max":243,"ha":243,"o":"m 159 486 l 159 0 l 65 0 l 65 702 q 65 715 74 730 q 82 745 100 761 q 114 773 136 780 q 158 788 193 791 l 218 792 l 258 792 l 258 762 l 213 759 q 159 759 159 709 l 159 518 l 265 518 l 265 486 z"},"Q":{"x_min":0,"x_max":853,"ha":853,"o":"m 463 -13 l 464 -209 l 363 -209 l 362 -14 q 227 -14 136 91 q 44 196 44 346 q 44 375 48 406 q 52 438 61 468 q 95 588 189 660 q 283 732 406 732 q 472 732 541 710 q 649 676 716 580 q 782 485 782 357 q 782 208 692 104 q 601 1 463 -13 z m 622 554 q 587 625 529 662 q 471 700 404 700 q 358 700 318 682 q 277 665 244 628 q 199 579 176 512 q 152 446 152 360 q 152 223 208 137 q 264 51 362 24 l 362 200 l 463 200 l 463 26 q 554 56 610 141 q 665 226 665 351 q 665 400 654 461 q 649 484 641 508 q 633 532 622 554 z"},"w":{"x_min":0,"x_max":695,"ha":695,"o":"m 512 33 q 505 15 500 8 q 496 2 490 -1 q 484 -4 478 -4 q 466 -4 458 7 l 446 32 l 353 248 l 264 32 l 252 7 q 245 -4 232 -4 q 220 -4 209 8 l 198 33 l -14 518 l 92 518 l 243 158 l 262 136 l 279 158 l 332 296 l 234 518 l 340 518 l 491 158 l 510 136 l 527 159 l 678 518 l 709 518 z"},"-":{"x_min":0,"x_max":298,"ha":298,"o":"m 36 251 l 36 338 l 262 338 l 262 251 z"},"E":{"x_min":0,"x_max":455,"ha":455,"o":"m 72 0 l 72 720 l 419 720 l 419 688 l 173 688 l 173 389 l 397 389 l 397 358 l 173 358 l 173 32 l 419 32 l 419 0 z"},"s":{"x_min":0,"x_max":439,"ha":439,"o":"m 235 0 l 49 0 l 49 38 l 239 38 q 278 38 302 61 q 326 84 326 123 q 326 134 323 148 l 316 168 q 305 192 283 204 q 261 217 209 228 l 176 235 l 158 239 l 140 244 q 84 262 60 294 q 36 326 36 380 q 36 443 76 480 q 115 518 180 518 l 370 518 l 370 484 l 201 484 q 131 484 116 420 q 113 406 113 396 q 113 366 136 346 q 158 327 206 316 l 232 310 q 315 296 355 263 q 395 230 402 172 q 402 165 403 157 q 404 149 404 144 q 404 75 360 38 q 317 0 235 0 z"},"l":{"x_min":0,"x_max":269,"ha":269,"o":"m 145 0 l 127 2 q 65 16 65 89 l 65 792 l 159 792 l 159 90 q 159 40 211 33 l 223 32 l 276 32 l 276 0 z"},"8":{"x_min":0,"x_max":605,"ha":605,"o":"m 303 -19 q 194 -19 131 41 q 68 101 68 207 q 68 306 139 366 q 172 394 200 405 l 208 408 l 217 411 l 203 416 q 159 433 135 468 q 111 503 111 550 q 111 575 120 604 q 137 662 182 694 q 228 725 301 725 q 355 725 391 707 q 470 669 483 578 q 483 571 484 563 q 485 555 485 550 q 485 454 395 417 l 381 411 l 391 408 l 400 405 q 429 394 462 367 q 536 305 536 209 q 536 192 533 174 q 521 84 460 32 q 400 -19 303 -19 z m 357 669 q 334 696 299 696 q 264 696 240 669 q 222 648 212 620 q 201 592 201 558 q 201 534 204 521 q 211 481 235 454 q 259 427 297 427 q 336 427 360 455 q 391 491 391 562 q 391 629 357 669 z m 379 351 q 347 390 299 390 q 253 390 221 351 q 198 323 186 285 q 173 247 173 199 q 173 183 174 174 q 175 165 178 146 q 205 14 303 14 q 359 14 394 62 q 429 111 429 203 q 429 249 416 285 q 404 321 379 351 z"},"e":{"x_min":0,"x_max":417,"ha":417,"o":"m 142 0 q 65 0 65 79 l 65 439 l 66 454 q 77 518 144 518 l 388 518 l 388 486 l 215 486 l 204 485 q 159 479 159 438 l 159 287 l 355 287 l 355 256 l 159 256 l 159 83 q 159 58 168 48 q 178 37 207 32 l 216 32 l 388 32 l 388 0 z"},"b":{"x_min":0,"x_max":624,"ha":624,"o":"m 287 0 l 65 0 l 65 792 l 159 792 l 159 518 l 287 518 q 393 518 465 470 q 537 421 564 336 q 577 298 577 258 q 577 217 564 182 q 537 97 465 48 q 393 0 287 0 z m 297 486 l 159 486 l 159 32 l 292 32 q 356 32 404 74 q 451 116 466 191 q 475 232 475 268 q 475 364 422 425 q 370 486 297 486 z"},"%":{"x_min":0,"x_max":872,"ha":872,"o":"m 724 8 q 686 -11 644 -11 q 602 -11 563 8 q 516 31 488 76 q 460 122 460 178 q 460 200 462 211 q 479 308 566 350 q 602 367 643 367 q 650 367 658 366 q 667 365 672 365 q 715 359 749 335 q 814 291 826 212 q 829 194 829 177 q 829 121 801 76 q 773 31 724 8 z m 340 0 l 299 0 l 533 720 l 574 720 z m 308 370 q 270 351 228 351 q 186 351 147 370 q 98 393 70 438 q 43 482 43 539 l 46 573 q 61 669 149 711 q 184 729 227 729 q 234 729 242 728 q 251 727 256 727 q 298 721 332 697 q 397 653 409 573 q 412 555 412 537 q 412 482 384 438 q 357 393 308 370 z m 695 336 q 668 352 645 352 q 624 352 595 336 q 560 315 539 266 q 523 233 523 178 q 523 121 539 88 q 560 40 595 21 q 618 9 641 9 q 665 9 693 23 q 726 40 746 80 q 765 120 765 177 q 765 185 765 194 q 763 206 763 212 q 758 258 740 289 q 723 320 695 336 z m 279 698 q 252 713 229 713 q 205 713 178 698 q 161 687 148 672 q 135 656 122 627 q 106 592 106 539 q 106 485 122 450 q 143 403 178 383 q 203 370 227 370 q 251 370 277 384 q 310 402 330 442 q 349 482 349 539 q 349 547 349 556 q 347 568 347 574 q 335 665 279 698 z"},"m":{"x_min":0,"x_max":721,"ha":721,"o":"m 562 0 l 562 368 l 562 399 q 562 406 557 411 q 552 416 546 416 q 534 416 516 385 l 512 376 l 324 -15 l 141 368 l 129 396 q 127 402 121 407 q 113 413 104 406 q 99 400 98 390 q 97 380 97 364 l 97 0 l 65 0 l 65 468 q 65 527 123 527 q 130 527 144 525 q 180 517 195 484 l 355 135 l 524 484 l 535 501 q 550 520 571 528 q 582 532 593 532 q 619 532 638 514 q 656 495 656 468 l 656 0 z"},",":{"x_min":0,"x_max":209,"ha":209,"o":"m 114 -27 l 44 -122 l 35 -134 l 12 -163 l -7 -186 l 0 -159 l 10 -124 l 25 -72 q 58 42 76 80 q 93 118 115 118 q 122 118 135 113 q 165 101 165 76 q 165 43 114 -27 z"},"n":{"x_min":0,"x_max":508,"ha":508,"o":"m 436 9 q 431 0 421 0 q 412 0 403 10 l 399 14 l 388 30 l 135 389 l 109 412 l 97 380 l 97 0 l 65 0 l 65 453 q 65 481 79 504 q 93 526 118 526 q 139 526 157 508 q 163 502 172 491 q 177 484 185 474 l 387 190 l 406 173 l 412 193 l 412 518 l 443 518 l 443 38 q 443 32 442 24 q 440 17 436 9 z"},"h":{"x_min":0,"x_max":594,"ha":594,"o":"m 435 0 l 435 280 l 159 280 l 159 0 l 65 0 l 65 792 l 159 792 l 159 311 l 435 311 l 435 518 l 529 518 l 529 0 z"},"z":{"x_min":0,"x_max":428,"ha":428,"o":"m 72 0 q 39 0 39 25 q 39 30 42 38 l 49 57 l 59 79 l 267 428 q 276 443 276 456 q 276 477 252 483 l 225 486 l 29 486 l 29 518 l 314 518 l 341 518 q 360 518 371 507 q 382 496 382 479 q 382 471 377 459 l 356 422 l 150 79 q 144 67 143 60 q 142 50 150 42 q 157 33 170 32 l 187 32 l 399 32 l 399 0 z"},"B":{"x_min":0,"x_max":647,"ha":647,"o":"m 329 0 l 72 0 l 72 720 l 341 720 q 408 720 457 702 q 506 685 537 652 q 585 601 585 534 q 585 493 566 458 q 547 424 511 405 l 479 391 q 465 386 454 384 q 443 381 429 379 q 443 376 450 375 q 458 374 477 367 q 486 363 496 360 q 499 359 514 350 q 555 327 576 289 q 598 251 598 204 q 598 170 584 136 q 571 102 544 74 q 512 40 456 20 q 400 0 329 0 z m 412 656 q 361 688 290 688 l 173 688 l 173 386 l 298 386 q 395 386 445 450 q 478 492 478 541 q 478 616 412 656 z m 422 321 q 372 355 298 355 l 173 355 l 173 32 l 290 32 q 342 32 384 50 q 425 68 451 100 q 487 145 487 200 q 487 276 422 321 z"},"K":{"x_min":0,"x_max":528,"ha":528,"o":"m 424 0 l 195 387 l 173 368 l 173 0 l 72 0 l 72 720 l 173 720 l 173 416 l 476 720 l 523 720 l 257 456 l 542 0 z"},"R":{"x_min":0,"x_max":568,"ha":568,"o":"m 417 0 l 195 383 l 294 383 q 368 383 408 424 q 449 464 449 537 q 449 602 401 645 q 353 688 279 688 l 173 688 l 173 0 l 72 0 l 72 720 l 305 720 q 367 720 416 700 q 466 679 496 644 q 517 620 528 590 q 539 559 539 529 q 539 446 470 396 q 425 364 354 348 l 325 344 l 536 0 z"},"T":{"x_min":0,"x_max":346,"ha":346,"o":"m 224 688 l 224 0 l 124 0 l 124 688 l -7 688 l -7 720 l 353 720 l 353 688 z"},"P":{"x_min":0,"x_max":523,"ha":523,"o":"m 301 360 l 173 360 l 173 0 l 72 0 l 72 720 l 301 720 q 379 720 430 686 q 482 653 501 593 q 509 570 509 540 q 509 521 508 512 q 507 503 501 487 q 482 427 430 394 q 379 360 301 360 z m 283 688 l 173 688 l 173 390 l 283 390 q 340 390 378 430 q 415 471 415 540 q 415 607 378 648 q 340 688 283 688 z"},"t":{"x_min":0,"x_max":345,"ha":345,"o":"m 221 486 l 221 0 l 127 0 l 127 486 l -7 486 l -7 518 l 352 518 l 352 486 z"},"M":{"x_min":0,"x_max":832,"ha":832,"o":"m 659 0 l 659 615 l 397 -14 l 104 615 l 104 0 l 72 0 l 72 720 l 167 720 l 424 166 l 672 720 l 760 720 l 760 0 z"},"g":{"x_min":0,"x_max":611,"ha":611,"o":"m 452 -209 l 452 20 q 436 9 410 0 q 384 -8 352 -12 q 319 -15 297 -15 q 194 -15 128 42 q 61 100 41 202 q 38 215 37 235 q 36 255 36 258 q 36 277 39 297 q 55 401 127 464 q 199 526 307 526 q 379 526 429 504 q 479 482 505 444 l 489 429 q 462 461 418 480 q 375 498 323 498 q 244 498 194 447 q 144 396 134 296 q 131 267 131 241 q 131 141 172 86 q 213 30 286 20 q 309 17 328 17 q 395 17 439 50 l 446 55 l 452 61 l 452 245 l 546 245 l 546 -209 z"},"j":{"x_min":0,"x_max":234,"ha":234,"o":"m 152 580 q 139 572 120 572 q 84 572 68 600 q 61 611 61 626 q 61 657 89 673 q 97 677 104 679 q 111 681 120 681 q 146 681 163 665 q 180 649 180 626 q 180 595 152 580 z m -7 -209 l -68 -209 l -68 -177 l -8 -177 q 28 -177 49 -146 q 70 -116 70 -49 l 70 -34 l 70 518 l 164 518 l 164 -34 q 164 -126 122 -168 q 81 -209 -7 -209 z"},"i":{"x_min":0,"x_max":241,"ha":241,"o":"m 144 579 q 131 572 113 572 q 77 572 61 600 q 54 613 54 627 q 54 659 82 673 q 98 681 113 681 q 149 681 165 653 q 173 639 173 626 q 173 595 144 579 z m 66 0 l 66 518 l 160 518 l 160 0 z"},"y":{"x_min":0,"x_max":507,"ha":507,"o":"m 170 -209 l 141 -209 l 248 17 l -14 518 l 86 518 l 296 117 l 490 518 l 521 518 z"},".":{"x_min":0,"x_max":223,"ha":223,"o":"m 139 0 q 122 -9 103 -9 q 62 -9 43 23 q 35 36 35 55 q 35 91 67 108 q 85 117 103 117 q 143 117 164 85 q 172 72 172 54 q 172 17 139 0 z"},"p":{"x_min":0,"x_max":624,"ha":624,"o":"m 287 0 l 159 0 l 159 -209 l 65 -209 l 65 518 l 287 518 q 393 518 465 470 q 537 421 564 336 q 577 298 577 258 q 577 217 564 182 q 537 97 465 48 q 393 0 287 0 z m 292 486 l 159 486 l 159 32 l 297 32 q 370 32 422 93 q 474 154 474 251 q 474 276 473 289 q 472 302 466 326 q 450 401 402 444 q 355 486 292 486 z"},"X":{"x_min":0,"x_max":612,"ha":612,"o":"m 499 0 l 287 311 l 44 0 l 0 0 l 264 340 l 14 720 l 117 720 l 323 417 l 564 720 l 607 720 l 346 382 l 612 0 z"},"*":{"x_min":0,"x_max":324,"ha":324,"o":"m 193 544 l 167 568 l 176 534 q 186 497 186 477 q 186 464 182 455 q 177 446 164 435 q 138 455 138 484 q 138 499 139 506 q 140 513 146 534 l 155 568 q 146 555 133 543 q 94 509 40 509 q 64 555 115 572 q 128 577 148 579 l 138 583 l 113 593 l 102 597 q 69 617 60 622 q 42 634 36 645 q 31 653 36 660 q 41 669 53 669 q 64 669 77 659 l 127 619 l 155 593 l 148 628 q 139 670 139 688 q 139 702 144 710 q 148 718 161 731 q 172 719 178 706 q 184 694 184 677 q 184 660 176 628 l 167 593 l 193 618 q 220 644 236 654 q 253 663 270 663 q 280 663 286 662 q 278 636 264 622 q 249 609 208 594 l 174 581 l 210 569 q 253 554 268 542 q 283 530 288 504 q 274 502 269 502 q 252 502 236 511 q 220 520 193 544 z"},"Y":{"x_min":0,"x_max":500,"ha":500,"o":"m 299 362 l 299 0 l 198 0 l 198 365 l -14 720 l 101 720 l 285 399 l 476 720 l 514 720 z"},"c":{"x_min":0,"x_max":529,"ha":529,"o":"m 361 -10 q 333 -15 309 -15 q 289 -15 268 -12 q 160 2 98 72 q 36 142 36 251 q 36 356 86 424 q 136 493 226 515 q 272 526 310 526 q 369 526 417 504 q 465 483 496 444 l 481 425 q 440 475 368 490 q 341 495 322 495 q 238 495 186 430 q 134 364 134 248 q 134 135 184 76 q 233 16 324 16 q 338 16 352 16 q 364 19 370 20 q 425 29 472 66 l 481 74 l 500 58 q 475 33 440 16 q 405 -2 361 -10 z"},"!":{"x_min":0,"x_max":253,"ha":253,"o":"m 159 529 l 156 486 l 152 433 l 137 270 l 136 250 l 131 172 l 113 172 l 110 227 l 107 269 l 86 485 l 81 534 l 77 589 q 73 634 73 665 q 73 688 76 697 q 79 706 90 718 q 101 730 119 730 q 138 730 150 717 q 159 708 161 697 q 163 686 163 657 l 163 589 z m 154 0 q 137 -9 118 -9 q 77 -9 58 23 q 50 36 50 55 q 50 91 82 108 q 100 117 118 117 q 158 117 179 85 q 187 72 187 54 q 187 17 154 0 z"},"/":{"x_min":0,"x_max":360,"ha":360,"o":"m 74 0 l 29 0 l 286 720 l 331 720 z"},"6":{"x_min":0,"x_max":620,"ha":620,"o":"m 462 31 q 391 -15 290 -15 q 177 -15 114 52 q 51 119 51 236 q 51 290 71 345 q 81 372 94 396 l 274 720 l 377 720 l 202 394 l 208 399 l 215 405 q 249 431 305 431 q 342 431 387 418 q 467 396 515 333 q 560 274 560 204 q 560 152 535 106 q 510 61 462 31 z m 401 357 q 361 396 304 396 q 265 396 232 376 q 199 357 182 321 q 175 305 170 293 q 166 281 163 267 q 160 253 159 240 q 158 227 158 212 q 158 180 165 152 q 172 124 184 98 q 203 61 236 40 q 269 20 307 20 q 361 20 401 60 q 459 116 459 208 q 459 255 444 292 q 430 329 401 357 z"},"r":{"x_min":0,"x_max":498,"ha":498,"o":"m 366 0 l 181 262 l 257 262 l 276 262 q 323 262 353 293 q 383 324 383 375 q 383 423 348 454 q 314 486 259 486 l 159 486 l 159 0 l 65 0 l 65 518 l 294 518 q 355 518 398 492 q 440 465 456 419 q 463 396 463 378 q 463 268 353 238 l 307 229 l 476 0 z"},"2":{"x_min":0,"x_max":605,"ha":605,"o":"m 72 0 l 301 313 l 309 323 l 323 343 l 340 366 l 354 387 l 370 412 q 421 497 421 557 q 421 568 420 574 q 413 630 384 658 q 354 686 293 686 q 286 687 273 687 q 167 687 125 570 l 120 555 l 84 555 l 86 564 l 88 573 q 107 645 160 684 q 214 724 293 724 q 394 724 450 678 q 505 633 505 555 q 505 506 481 447 q 471 422 454 393 q 438 364 412 324 l 397 302 l 393 296 l 377 276 l 205 41 l 507 41 l 507 0 z"},"9":{"x_min":0,"x_max":606,"ha":606,"o":"m 516 369 l 506 352 l 496 336 l 485 318 l 479 309 l 278 0 l 165 0 l 387 322 q 360 306 329 298 q 298 290 265 290 q 170 290 111 349 q 52 408 52 501 q 52 512 53 523 q 53 525 56 546 q 68 618 125 669 q 150 690 184 704 q 217 719 259 725 q 269 725 281 726 q 293 727 300 727 q 320 727 352 722 q 384 718 420 702 q 456 687 481 663 q 551 597 551 506 q 551 469 542 434 q 533 399 516 369 z m 384 660 q 348 699 299 699 q 264 699 234 680 q 204 660 186 622 q 174 599 169 572 q 164 545 164 534 q 163 524 163 518 q 163 471 176 434 q 190 397 216 370 q 251 332 302 332 q 339 332 368 352 q 398 371 416 409 q 420 418 425 434 q 430 449 432 460 q 434 472 435 486 q 436 499 436 511 q 436 605 384 660 z"}," ":{"x_min":0,"x_max":290,"ha":290,"o":""},"I":{"x_min":0,"x_max":245,"ha":245,"o":"m 72 0 l 72 720 l 173 720 l 173 0 z"},"H":{"x_min":0,"x_max":640,"ha":640,"o":"m 467 0 l 467 365 l 173 365 l 173 0 l 72 0 l 72 720 l 173 720 l 173 396 l 467 396 l 467 720 l 568 720 l 568 0 z"},"4":{"x_min":0,"x_max":605,"ha":605,"o":"m 452 240 l 452 0 l 349 0 l 349 240 l -5 240 l 348 720 l 452 720 l 452 280 l 515 280 l 515 240 z m 349 658 l 69 280 l 349 280 z"},"~":{"x_min":0,"x_max":325,"ha":325,"o":"m 315 655 q 298 572 232 572 q 215 572 192 578 l 171 584 l 156 589 l 125 599 q 119 601 112 602 q 104 604 98 604 q 72 604 64 580 l 63 574 l 7 574 l 9 593 q 26 680 93 680 q 109 680 132 675 l 196 654 q 217 647 231 647 q 252 647 260 671 l 262 678 l 318 678 z"},"D":{"x_min":0,"x_max":711,"ha":711,"o":"m 345 0 l 72 0 l 72 720 l 348 720 q 477 720 566 622 q 655 524 655 371 q 655 317 641 253 q 614 135 534 68 q 454 0 345 0 z m 345 688 l 173 688 l 173 32 l 345 32 q 428 32 484 112 q 546 201 546 359 q 546 518 484 608 q 429 688 345 688 z"},"0":{"x_min":0,"x_max":616,"ha":616,"o":"m 494 82 q 458 37 406 14 q 353 -10 296 -10 q 200 -10 135 51 q 85 98 58 167 q 28 243 28 342 q 28 361 28 384 q 29 406 36 443 q 57 552 119 634 q 155 680 204 704 q 253 729 307 729 q 394 729 458 668 q 527 599 554 493 q 574 414 574 337 q 574 260 554 196 q 533 131 494 82 z m 359 671 q 334 687 303 687 q 237 687 199 618 q 167 561 152 498 q 138 435 138 349 q 138 305 144 261 q 157 167 196 99 q 215 67 244 48 q 274 30 306 30 q 336 30 364 47 q 391 64 412 96 q 433 127 450 179 q 458 206 462 224 q 466 243 466 262 q 466 428 437 534 q 408 639 359 671 z"},"F":{"x_min":0,"x_max":426,"ha":426,"o":"m 173 688 l 173 389 l 397 389 l 397 358 l 173 358 l 173 0 l 72 0 l 72 720 l 419 720 l 419 688 z"},"`":{"x_min":0,"x_max":267,"ha":267,"o":"m 128 571 l 7 713 l 140 713 l 206 571 z"},"k":{"x_min":0,"x_max":501,"ha":501,"o":"m 409 0 l 177 298 l 159 281 l 159 3 l 65 0 l 65 792 l 159 792 l 159 321 l 379 518 l 420 518 l 241 356 l 515 0 z"},"u":{"x_min":0,"x_max":501,"ha":501,"o":"m 222 -5 q 150 4 108 54 q 65 105 65 185 l 65 518 l 159 518 l 159 185 q 159 124 182 87 q 206 50 251 39 q 267 35 285 35 q 338 35 371 75 q 404 115 404 188 l 404 518 l 436 518 l 436 189 q 436 98 388 46 q 339 -7 256 -7 q 248 -7 244 -7 q 238 -7 222 -5 z"},"U":{"x_min":0,"x_max":562,"ha":562,"o":"m 283 -7 q 190 -7 131 47 q 72 101 72 179 l 72 720 l 173 720 l 173 179 q 173 116 213 75 q 253 34 312 34 q 332 34 355 40 q 399 53 427 87 q 443 108 451 130 q 459 153 459 182 l 459 720 l 490 720 l 490 183 q 490 100 434 46 q 377 -7 283 -7 z"},"o":{"x_min":0,"x_max":658,"ha":658,"o":"m 317 -15 q 217 -15 146 36 q 74 88 47 178 q 35 217 35 258 q 35 378 114 456 q 194 533 317 533 q 439 533 520 456 q 600 378 600 263 q 600 222 588 178 q 561 88 490 36 q 419 -15 317 -15 z m 317 510 q 239 510 187 446 q 131 377 131 258 q 131 225 139 188 q 143 169 148 154 q 154 138 164 116 q 189 66 230 40 q 272 13 321 13 q 389 13 437 65 q 459 90 473 118 q 487 147 496 189 q 506 231 506 273 q 506 377 450 444 q 393 510 317 510 z"},"N":{"x_min":0,"x_max":654,"ha":654,"o":"m 103 597 l 103 0 l 72 0 l 72 720 l 124 720 l 550 189 l 550 720 l 582 720 l 582 -14 z"},"G":{"x_min":0,"x_max":752,"ha":752,"o":"m 651 612 q 629 627 607 637 q 585 647 558 657 l 527 667 q 479 681 429 681 q 307 681 232 594 q 156 508 156 358 q 156 208 234 119 q 309 33 428 33 q 437 33 442 33 q 447 33 453 33 q 461 35 465 35 q 499 39 525 48 q 551 58 569 72 l 569 309 l 369 309 l 369 339 l 670 339 l 670 86 l 663 81 l 657 76 l 621 53 q 596 39 573 28 q 550 18 530 13 q 459 -8 394 -8 q 242 -8 142 94 q 43 195 43 358 q 43 519 144 620 q 244 722 399 722 q 440 722 470 718 q 499 714 540 701 q 600 683 651 647 l 672 631 z"},"q":{"x_min":0,"x_max":624,"ha":624,"o":"m 453 -209 l 453 0 l 325 0 q 219 0 147 48 q 75 97 47 182 q 35 218 35 258 q 35 297 47 336 q 75 421 147 470 q 219 518 325 518 l 546 518 l 546 -209 z m 453 486 l 319 486 q 256 486 208 444 q 161 402 145 326 q 142 311 140 290 q 137 268 137 251 q 137 154 189 93 q 241 32 314 32 l 453 32 z"},"d":{"x_min":0,"x_max":624,"ha":624,"o":"m 325 0 q 219 0 147 48 q 75 97 47 182 q 35 220 35 259 q 35 298 47 336 q 75 421 147 470 q 219 518 325 518 l 453 518 l 453 792 l 546 792 l 546 0 z m 453 486 l 314 486 q 241 486 189 424 q 137 363 137 266 q 137 241 138 228 q 139 215 145 191 q 161 115 208 74 q 255 32 319 32 l 453 32 z"},"1":{"x_min":0,"x_max":605,"ha":605,"o":"m 246 0 l 246 669 l 158 653 l 154 689 l 348 720 l 348 0 z"},"5":{"x_min":0,"x_max":605,"ha":605,"o":"m 237 689 l 237 465 l 361 465 l 379 464 q 424 457 449 434 q 474 411 474 375 q 474 343 454 307 l 448 296 l 238 0 l 131 0 l 357 313 q 381 345 381 364 q 381 373 378 387 q 371 416 355 428 q 339 440 308 440 l 134 440 l 134 720 l 458 720 l 458 689 z"}}}
